<svg xmlns="http://www.w3.org/2000/svg" width="199.996" height="200" viewBox="0 0 199.996 200">
  <g id="livejournal" transform="translate(-0.005 0)">
    <g id="Grupo_15" data-name="Grupo 15" transform="translate(165.881 38.836)">
      <g id="Grupo_14" data-name="Grupo 14">
        <path id="Trazado_33" data-name="Trazado 33" d="M431.576,100.824l-.259-.261a3.907,3.907,0,1,0-5.525,5.525l.234.234a3.906,3.906,0,1,0,5.55-5.5Z" transform="translate(-424.648 -99.42)" fill="#29174c"/>
      </g>
    </g>
    <g id="Grupo_17" data-name="Grupo 17" transform="translate(0.005 0)">
      <g id="Grupo_16" data-name="Grupo 16" transform="translate(0 0)">
        <path id="Trazado_34" data-name="Trazado 34" d="M184.968,55.308a3.906,3.906,0,1,0-6.553,4.252,86.3,86.3,0,0,1-11.389,107.46A85.973,85.973,0,0,1,25.185,77.7l69.1,69.1a3.9,3.9,0,0,0,2.01,1.088l24.526,4.947.028.005,34.32,6.923a3.906,3.906,0,0,0,4.6-4.6l-6.925-34.331-.006-.029L147.9,96.294a3.884,3.884,0,0,0-1.047-1.964c-.014-.015-.026-.031-.041-.046L77.7,25.17A85.63,85.63,0,0,1,150.718,32.7a3.906,3.906,0,1,0,4.046-6.683A94.2,94.2,0,0,0,71.63,19.1L53.672,1.144A3.906,3.906,0,0,0,49.366.318,94.029,94.029,0,0,0,.323,49.36a3.908,3.908,0,0,0,.826,4.306L19.114,71.631A93.759,93.759,0,1,0,184.968,55.308Zm-34.015,95.641-23.6-4.76a48.823,48.823,0,0,1,18.837-18.837Zm-6.37-31.577a56.538,56.538,0,0,0-25.208,25.207l-16.7-3.369a86.249,86.249,0,0,1,38.538-38.539Zm-7.239-23.505A94.186,94.186,0,0,0,95.871,137.34L28.389,69.857A86.617,86.617,0,0,1,69.864,28.385ZM8.577,50.045A86.287,86.287,0,0,1,50.051,8.571L64.007,22.527A94.771,94.771,0,0,0,22.542,64.01Z" transform="translate(-0.005 0)" fill="#29174c"/>
      </g>
    </g>
    <g id="Grupo_19" data-name="Grupo 19" transform="translate(44.909 62.442)">
      <g id="Grupo_18" data-name="Grupo 18">
        <path id="Trazado_35" data-name="Trazado 35" d="M145.981,185.352,121.626,161a3.906,3.906,0,1,0-5.524,5.525l24.354,24.354a3.906,3.906,0,0,0,5.524-5.525Z" transform="translate(-114.958 -159.853)" fill="#29174c"/>
      </g>
    </g>
    <g id="Grupo_21" data-name="Grupo 21" transform="translate(79.955 97.49)">
      <g id="Grupo_20" data-name="Grupo 20">
        <path id="Trazado_36" data-name="Trazado 36" d="M211.386,250.759l-.032-.032a3.906,3.906,0,1,0-5.541,5.508l.032.032a3.906,3.906,0,1,0,5.541-5.508Z" transform="translate(-204.677 -249.575)" fill="#29174c"/>
      </g>
    </g>
  </g>
</svg>
