<svg xmlns="http://www.w3.org/2000/svg" width="226.01" height="200" viewBox="0 0 226.01 200">
  <g id="vector" transform="translate(0 -29.327)">
    <path id="Trazado_55" data-name="Trazado 55" d="M247.57,453.8a3.326,3.326,0,0,1-3.326-3.326v-8.844a2.3,2.3,0,0,0-2.3-2.3h-8.929a2.3,2.3,0,0,0-2.3,2.3v8.844a3.326,3.326,0,0,1-6.652,0v-8.844a8.96,8.96,0,0,1,8.949-8.949h8.929a8.96,8.96,0,0,1,8.949,8.949v8.844a3.326,3.326,0,0,1-3.326,3.326Z" transform="translate(-124.699 -224.476)" fill="#29174c"/>
    <g id="Grupo_22" data-name="Grupo 22" transform="translate(0 29.327)">
      <path id="Trazado_56" data-name="Trazado 56" d="M222.188,161.522a3.326,3.326,0,1,0-5.347,3.958l16.516,22.307a7,7,0,0,1-.3,8.509L215.261,216.6h-50.1L147.362,196.3a7,7,0,0,1-.3-8.509L179.851,143.5v25.236a16.948,16.948,0,1,0,21.159.361v-25l7.3,9.864A3.326,3.326,0,0,0,213.66,150l-14.267-19.269a11.223,11.223,0,0,0-18.369,0L141.713,183.83a13.685,13.685,0,0,0,.646,16.851l14.84,16.935a10.862,10.862,0,0,0-6.281,9.837v15.868a10.869,10.869,0,0,0,7.619,10.358l.907,26.216a3.326,3.326,0,0,0,3.322,3.211l.117,0a3.326,3.326,0,0,0,3.209-3.439l-.883-25.495h50.44l-.883,25.495a3.326,3.326,0,0,0,3.209,3.439l.117,0a3.326,3.326,0,0,0,3.322-3.211l.913-26.368a10.867,10.867,0,0,0,7.171-10.206V227.453a10.862,10.862,0,0,0-6.281-9.837l14.84-16.935a13.685,13.685,0,0,0,.646-16.851Zm-31.979-28.908a4.757,4.757,0,0,1,3.838,2.079l.311.42v35.654a3.326,3.326,0,0,0,1.5,2.778,10.289,10.289,0,1,1-10.959-.214,3.326,3.326,0,0,0,1.606-2.847V134.532a4.709,4.709,0,0,1,3.706-1.918ZM222.848,243.32a4.2,4.2,0,0,1-4.2,4.2H161.767a4.2,4.2,0,0,1-4.2-4.2V227.452a4.2,4.2,0,0,1,4.2-4.2H218.65a4.2,4.2,0,0,1,4.2,4.2Z" transform="translate(-77.425 -83.106)" fill="#29174c"/>
      <path id="Trazado_57" data-name="Trazado 57" d="M84.162,164.568a66.442,66.442,0,0,1,8.555-30,3.326,3.326,0,1,0-5.786-3.283A73.1,73.1,0,0,0,77.5,164.535a13.267,13.267,0,1,0,6.657.032Zm-3.39,19.439a6.614,6.614,0,1,1,6.614-6.614A6.621,6.621,0,0,1,80.772,184.007Z" transform="translate(-37.569 -85.132)" fill="#29174c"/>
      <path id="Trazado_58" data-name="Trazado 58" d="M218.968,29.327H208.279a7.051,7.051,0,0,0-7.042,7.042v2.018H125.392V36.369a7.051,7.051,0,0,0-7.042-7.042H107.661a7.051,7.051,0,0,0-7.042,7.042v2.018H24.774V36.369a7.051,7.051,0,0,0-7.042-7.042H7.042A7.051,7.051,0,0,0,0,36.369V47.058A7.051,7.051,0,0,0,7.042,54.1H17.731a7.051,7.051,0,0,0,7.042-7.042V45.04H82.513A73.267,73.267,0,0,0,58.1,63.218a3.326,3.326,0,0,0,4.993,4.4A66.414,66.414,0,0,1,100.618,46.2v.86a7.051,7.051,0,0,0,7.042,7.042H118.35a7.051,7.051,0,0,0,7.042-7.042V46.2a66.621,66.621,0,0,1,54.029,62.564,13.265,13.265,0,1,0,6.654-.031A73.376,73.376,0,0,0,143.5,45.041h57.738v2.018a7.051,7.051,0,0,0,7.042,7.042h10.689a7.051,7.051,0,0,0,7.042-7.042V36.369a7.051,7.051,0,0,0-7.042-7.042ZM18.121,47.058a.391.391,0,0,1-.39.39H7.042a.391.391,0,0,1-.39-.39V36.369a.391.391,0,0,1,.39-.39H17.731a.391.391,0,0,1,.39.39Zm171.3,74.53a6.614,6.614,0,1,1-6.614-6.614A6.621,6.621,0,0,1,189.421,121.588ZM118.74,47.058a.391.391,0,0,1-.39.39H107.661a.391.391,0,0,1-.39-.39V36.369a.391.391,0,0,1,.39-.39H118.35a.391.391,0,0,1,.39.39Zm100.618,0a.391.391,0,0,1-.39.39H208.279a.391.391,0,0,1-.39-.39V36.369a.391.391,0,0,1,.39-.39h10.689a.391.391,0,0,1,.39.39Z" transform="translate(0 -29.327)" fill="#29174c"/>
    </g>
  </g>
</svg>
