<svg xmlns="http://www.w3.org/2000/svg" width="187.866" height="150" viewBox="0 0 187.866 150">
  <g id="XMLID_1902_" transform="translate(0 -51.6)">
    <path id="XMLID_412_" d="M186.791,195.335l-5.829-5.829V178.878a3.67,3.67,0,0,0-1.075-2.595l-10.851-10.851v-9.1a3.67,3.67,0,0,0-1.075-2.595l-4.616-4.616a13.72,13.72,0,0,0,5.626-22.8l-12.59-12.591a3.669,3.669,0,0,0-5.189,5.189l12.59,12.591a6.383,6.383,0,0,1-8.92,9.132L112.429,98.206a32.148,32.148,0,0,1,14.43,1.26,3.669,3.669,0,0,0,2.281-6.975,39.556,39.556,0,0,0-20.8-.99L77.989,61.154a3.672,3.672,0,0,0-3.158-1.031A19.858,19.858,0,0,1,57.8,54.561l-1.887-1.887a3.67,3.67,0,0,0-5.189,0L38.941,64.455a3.669,3.669,0,0,0,0,5.189l1.887,1.887A19.853,19.853,0,0,1,46.39,88.563a3.671,3.671,0,0,0,1.031,3.158l15.765,15.765L36.579,132.56a27.365,27.365,0,0,1-18.838,7.478H3.669a3.669,3.669,0,1,0,0,7.339H17.74A34.677,34.677,0,0,0,41.612,137.9l26.765-25.223,6.495,6.495-2.042,6.506a14.607,14.607,0,0,0,18.427,18.274l22.73-7.342a7.778,7.778,0,0,1,9.135,3.626l.133.237a7.444,7.444,0,0,1-3.776,10.569c-6.333,2.483-13.942,5.465-19.5,7.636a23,23,0,0,0-12.9,13,35.2,35.2,0,0,1-32.462,22.192H3.669a3.669,3.669,0,1,0,0,7.339H54.638a41.873,41.873,0,0,0,23.708-7.36A42.364,42.364,0,0,0,93.912,174.38a15.719,15.719,0,0,1,7.933-8.52L116,180.011a13.725,13.725,0,0,0,19.409,0,13.843,13.843,0,0,0,1.348-1.567L140,181.7a3.67,3.67,0,0,0,2.595,1.075h9.1l10.851,10.851a3.67,3.67,0,0,0,2.595,1.075h10.629l5.829,5.829a3.67,3.67,0,0,0,5.19-5.189ZM134.784,166.1l-9.742-9.742a14.775,14.775,0,0,0,6.075-15.758l6.656-6.656,14.588,14.578Zm-26.173-35.461-7.021,2.268L87.636,118.948l17.573-17.573,16.331,16.331Zm-7.281-35.76L81.142,115.064,55.2,89.127l20.189-20.19ZM46.711,67.063l6.618-6.619a27.208,27.208,0,0,0,13.416,6.763L53.474,80.479A27.214,27.214,0,0,0,46.711,67.063ZM89,136.969a7.269,7.269,0,0,1-9.169-9.094l1.518-4.836,12.4,12.4Zm31.2-7.548,6.526-6.526,5.855,5.855-5.091,5.091A15.2,15.2,0,0,0,120.2,129.421Zm5.5,47.271a6.345,6.345,0,0,1-4.516-1.871l-11.9-11.9,8.583-3.363,13.566,13.566a6.381,6.381,0,0,1-5.73,3.57Zm14.272-5.407,17.578-17.578,4.146,4.146v7.975l-9.6,9.6H144.12Zm18.632,8.014,6.96-6.96,8.058,8.058v6.96h-6.96Z" fill="#29174c"/>
    <g id="XMLID_284_" transform="translate(138.445 100.98)">
      <path id="XMLID_303_" d="M380.979,193.518a3.676,3.676,0,1,1,2.591-1.075A3.705,3.705,0,0,1,380.979,193.518Z" transform="translate(-377.31 -186.179)" fill="#29174c"/>
    </g>
  </g>
</svg>
