<svg xmlns="http://www.w3.org/2000/svg" width="196.721" height="200" viewBox="0 0 196.721 200">
  <g id="bullhorn" transform="translate(-2 -1)">
    <path id="Trazado_18" data-name="Trazado 18" d="M116.754,104.131H110.2V72a3.279,3.279,0,0,0-6.557,0v32.131H18.393V38.557H45.672a3.279,3.279,0,1,0,0-6.557H15.115a3.279,3.279,0,0,0-3.279,3.279v68.852H5.279A3.279,3.279,0,0,0,2,107.41v6.557a16.393,16.393,0,0,0,16.393,16.393h85.246a16.393,16.393,0,0,0,16.393-16.393V107.41A3.279,3.279,0,0,0,116.754,104.131Zm-3.279,9.836a9.836,9.836,0,0,1-9.836,9.836H97.082v-3.279a3.279,3.279,0,0,0-6.557,0V123.8H31.508v-3.279a3.279,3.279,0,1,0-6.557,0V123.8H18.393a9.836,9.836,0,0,1-9.836-9.836v-3.279H113.475Z" transform="translate(0 70.639)" fill="#29174c"/>
    <path id="Trazado_19" data-name="Trazado 19" d="M65.393,12.557h6.557a3.279,3.279,0,1,0,0-6.557H65.393a9.836,9.836,0,0,0-9.836,9.836v3.279H52.279a3.279,3.279,0,0,0,0,6.557h3.279v9.836a3.279,3.279,0,0,0,6.557,0V25.672h3.279a3.279,3.279,0,1,0,0-6.557H62.115V15.836A3.279,3.279,0,0,1,65.393,12.557Z" transform="translate(107.098 11.393)" fill="#29174c"/>
    <path id="Trazado_20" data-name="Trazado 20" d="M93.18,2H53.836A9.836,9.836,0,0,0,44,11.836v6.557a3.279,3.279,0,1,0,6.557,0V11.836a3.279,3.279,0,0,1,3.279-3.279H93.18a3.279,3.279,0,0,1,3.279,3.279V51.18a3.279,3.279,0,0,1-3.279,3.279H53.836a3.279,3.279,0,0,1-3.279-3.279V31.508a3.279,3.279,0,0,0-6.557,0V51.18a9.836,9.836,0,0,0,9.836,9.836H93.18a9.836,9.836,0,0,0,9.836-9.836V11.836A9.836,9.836,0,0,0,93.18,2Z" transform="translate(95.705 2.279)" fill="#29174c"/>
    <path id="Trazado_21" data-name="Trazado 21" d="M49,51.115A13.115,13.115,0,1,0,62.115,38,13.115,13.115,0,0,0,49,51.115Zm19.672,0a6.557,6.557,0,1,1-6.557-6.557A6.557,6.557,0,0,1,68.672,51.115Z" transform="translate(107.098 84.311)" fill="#29174c"/>
    <path id="Trazado_22" data-name="Trazado 22" d="M93.18,33H53.836A9.836,9.836,0,0,0,44,42.836V82.18a9.836,9.836,0,0,0,9.836,9.836H93.18a9.836,9.836,0,0,0,9.836-9.836V75.623a3.279,3.279,0,0,0-6.557,0V82.18a3.279,3.279,0,0,1-3.279,3.279H53.836a3.279,3.279,0,0,1-3.279-3.279V42.836a3.279,3.279,0,0,1,3.279-3.279H93.18a3.279,3.279,0,0,1,3.279,3.279V62.508a3.279,3.279,0,0,0,6.557,0V42.836A9.836,9.836,0,0,0,93.18,33Z" transform="translate(95.705 72.918)" fill="#29174c"/>
    <path id="Trazado_23" data-name="Trazado 23" d="M25.541,31.731a3.261,3.261,0,0,0,3.213.131l19.672-9.836a3.279,3.279,0,0,0,0-5.836L28.754,6.354A3.279,3.279,0,0,0,24,9.272V28.944A3.279,3.279,0,0,0,25.541,31.731Zm5.016-17.148,9.049,4.525-9.049,4.525Z" transform="translate(50.131 11.4)" fill="#29174c"/>
    <path id="Trazado_24" data-name="Trazado 24" d="M47.508,60.016A29.508,29.508,0,1,0,18,30.508,29.508,29.508,0,0,0,47.508,60.016Zm0-52.459A22.951,22.951,0,1,1,24.557,30.508,22.951,22.951,0,0,1,47.508,7.557Z" transform="translate(36.459)" fill="#29174c"/>
    <path id="Trazado_25" data-name="Trazado 25" d="M39.279,36.672A3.279,3.279,0,0,0,41.9,35.361l9.836-13.115a3.279,3.279,0,1,0-5.246-3.934L36.656,31.426a3.279,3.279,0,0,0,2.623,5.246Z" transform="translate(77.475 36.459)" fill="#29174c"/>
    <path id="Trazado_26" data-name="Trazado 26" d="M39.656,37.082a3.279,3.279,0,0,0,4.59.656L57.361,27.9a3.279,3.279,0,1,0-3.934-5.246L40.312,32.492a3.279,3.279,0,0,0-.656,4.59Z" transform="translate(84.311 47.852)" fill="#29174c"/>
    <path id="Trazado_27" data-name="Trazado 27" d="M65.19,30.677a3.279,3.279,0,0,0-3.934-2.623L44.862,31.332a3.3,3.3,0,0,0,.656,6.557h.656l16.393-3.279a3.279,3.279,0,0,0,2.623-3.934Z" transform="translate(90.908 61.471)" fill="#29174c"/>
    <path id="Trazado_28" data-name="Trazado 28" d="M5.279,70.016H44.623A3.279,3.279,0,0,0,47.9,66.738V14.279A3.279,3.279,0,0,0,44.623,11H5.279A3.279,3.279,0,0,0,2,14.279V66.738A3.279,3.279,0,0,0,5.279,70.016ZM8.557,17.557H41.344v45.9H8.557Z" transform="translate(0 22.787)" fill="#29174c"/>
    <path id="Trazado_29" data-name="Trazado 29" d="M17.836,15H11.279a3.279,3.279,0,1,0,0,6.557h6.557a3.279,3.279,0,1,0,0-6.557Z" transform="translate(13.672 31.902)" fill="#29174c"/>
    <path id="Trazado_30" data-name="Trazado 30" d="M22.393,19H9.279a3.279,3.279,0,0,0,0,6.557H22.393a3.279,3.279,0,1,0,0-6.557Z" transform="translate(9.115 41.016)" fill="#29174c"/>
    <path id="Trazado_31" data-name="Trazado 31" d="M22.393,23H9.279a3.279,3.279,0,1,0,0,6.557H22.393a3.279,3.279,0,1,0,0-6.557Z" transform="translate(9.115 50.131)" fill="#29174c"/>
    <path id="Trazado_32" data-name="Trazado 32" d="M97.841,41.682a3.29,3.29,0,1,0-5.7,3.279l14.459,25.016L54.136,89.65h-.492L45.12,94.568l-5.672,3.279A6.547,6.547,0,0,1,30.5,95.453L23.939,84.109A6.557,6.557,0,0,1,26.4,75.453L37.742,68.9l8.2,14.2a3.29,3.29,0,0,0,5.7-3.279L43.185,65.191,84.333,31.256l1.344,2.328a3.29,3.29,0,0,0,5.7-3.279L88.1,24.633a3.322,3.322,0,0,0-4.951-.885l-45.9,37.836L23.283,69.65A13.115,13.115,0,0,0,17.251,84.5l-3.279,1.869a9.828,9.828,0,0,0,4.918,18.361,10.033,10.033,0,0,0,4.918-1.311l3.279-1.869a12.721,12.721,0,0,0,5.738,3.41,12.426,12.426,0,0,0,3.443.459,12.918,12.918,0,0,0,6.557-1.77l2.852-1.639,6.557,11.377a9.827,9.827,0,1,0,17.016-9.836L63.283,93.158,112.464,74.7a3.288,3.288,0,0,0,1.7-4.689ZM20.4,97.715a3.276,3.276,0,1,1-3.279-5.672L19.972,90.4l3.279,5.672Zm43.148,9.18a3.276,3.276,0,0,1-5.672,3.279L51.316,98.8l5.443-3.115h.262Z" transform="translate(16.028 50.137)" fill="#29174c"/>
  </g>
</svg>
