<svg xmlns="http://www.w3.org/2000/svg" width="211.542" height="200" viewBox="0 0 211.542 200">
  <g id="Grupo_27" data-name="Grupo 27" transform="translate(-912 -2286)">
    <g id="Grupo_26" data-name="Grupo 26" transform="translate(912 2286)">
      <g id="Grupo_23" data-name="Grupo 23">
        <g id="rgb" transform="translate(0 0)">
          <path id="Trazado_37" data-name="Trazado 37" d="M306.889,237.864a3.111,3.111,0,1,0-5.344,3.186,63.911,63.911,0,0,1,5.314,11.3,3.111,3.111,0,1,0,5.863-2.084A70.122,70.122,0,0,0,306.889,237.864Z" transform="translate(-176.209 -144.083)" fill="#29174c"/>
          <path id="Trazado_38" data-name="Trazado 38" d="M302.033,395.02a3.109,3.109,0,0,0,2.633-1.45,70.217,70.217,0,0,0,6.209-12.4,3.111,3.111,0,0,0-5.812-2.222,63.96,63.96,0,0,1-5.657,11.3,3.112,3.112,0,0,0,2.627,4.773Z" transform="translate(-174.933 -226.367)" fill="#29174c"/>
          <path id="Trazado_39" data-name="Trazado 39" d="M176.24,82.695A69.605,69.605,0,0,0,154.261,33.13a3.111,3.111,0,0,0-4.276,4.52,63.4,63.4,0,0,1,19.878,41.8,70.43,70.43,0,0,0-64.091,3.483,70.425,70.425,0,0,0-63.661-3.672,64.065,64.065,0,0,1,97.727-49.443,3.111,3.111,0,1,0,3.294-5.278A70.285,70.285,0,0,0,35.722,82.461a70.258,70.258,0,0,0-9.753,115.724,3.111,3.111,0,1,0,3.926-4.827A64.033,64.033,0,0,1,35.907,89.605,70.376,70.376,0,0,0,71,145.137a70.9,70.9,0,0,0,1.1,11.051,3.111,3.111,0,1,0,6.123-1.1,64.369,64.369,0,0,1-.842-6.7,70.21,70.21,0,0,0,56.757.188,64.25,64.25,0,0,1-.828,6.507,3.111,3.111,0,1,0,6.123,1.1,70.857,70.857,0,0,0,1.1-10.815,70.378,70.378,0,0,0,35.494-55.514,64.06,64.06,0,0,1-64.383,110.6,71.252,71.252,0,0,0,8-6.811,3.111,3.111,0,1,0-4.371-4.427,64.652,64.652,0,0,1-9.506,7.754,64.7,64.7,0,0,1-9.506-7.754,3.111,3.111,0,1,0-4.371,4.427,71.089,71.089,0,0,0,8,6.811,64.2,64.2,0,0,1-59.118.047,3.111,3.111,0,0,0-2.87,5.521,70.4,70.4,0,0,0,67.863-1.711A70.283,70.283,0,1,0,176.24,82.695Zm-35.89,55.535c-.144-1.877-.361-3.748-.652-5.6a3.111,3.111,0,1,0-6.146.967,64.811,64.811,0,0,1,.751,8.043,63.96,63.96,0,0,1-57.054-.2,64.873,64.873,0,0,1,.745-7.84,3.111,3.111,0,0,0-6.146-.967c-.278,1.768-.488,3.553-.632,5.344A64.07,64.07,0,0,1,41.956,86.193a64.214,64.214,0,0,1,57.946.6,71.5,71.5,0,0,0-9.528,8.378,3.111,3.111,0,0,0,4.505,4.292,64.862,64.862,0,0,1,10.893-9.18,64.9,64.9,0,0,1,10.893,9.18,3.111,3.111,0,0,0,4.505-4.292,71.473,71.473,0,0,0-9.528-8.378A64.214,64.214,0,0,1,170,86.4a64.08,64.08,0,0,1-29.645,51.834Z" transform="translate(0 -13.917)" fill="#29174c"/>
          <path id="Trazado_40" data-name="Trazado 40" d="M190.815,395.021a3.111,3.111,0,0,0,2.627-4.773,63.974,63.974,0,0,1-5.657-11.3,3.111,3.111,0,0,0-5.812,2.222,70.211,70.211,0,0,0,6.209,12.4,3.11,3.11,0,0,0,2.634,1.45Z" transform="translate(-106.371 -226.368)" fill="#29174c"/>
          <path id="Trazado_41" data-name="Trazado 41" d="M190.733,236.785a3.112,3.112,0,0,0-4.265,1.079,70.146,70.146,0,0,0-5.832,12.4,3.111,3.111,0,1,0,5.863,2.084,63.86,63.86,0,0,1,5.314-11.3A3.11,3.11,0,0,0,190.733,236.785Z" transform="translate(-105.603 -144.084)" fill="#29174c"/>
        </g>
        <path id="Unión_1" data-name="Unión 1" d="M24.15,142.612V124.907l-7.294,17.706H12.722L5.39,124.907v17.706H-.069V115.391h6.2l8.658,20.241,8.658-20.241h6.161v27.221Zm109.18-1v-9.234l-9.005-17.29h6l5.7,12.122,5.662-12.122h5.928l-8.968,17.29v9.234ZM81.963,98.168,72.057,86.039V98.168H66.6V70.946h5.459V83.153l9.906-12.207h6.591L77.322,84.44,88.866,98.168ZM67.593,25.517a12.993,12.993,0,0,1-4.953-4.934,14.156,14.156,0,0,1-1.814-7.176,14.26,14.26,0,0,1,1.814-7.2,12.952,12.952,0,0,1,4.953-4.954,14.06,14.06,0,0,1,7.04-1.774,13.842,13.842,0,0,1,7.995,2.34,12.23,12.23,0,0,1,4.8,6.474H81.146a6.51,6.51,0,0,0-2.632-2.925,7.73,7.73,0,0,0-3.92-.975A8.059,8.059,0,0,0,70.362,5.51a7.588,7.588,0,0,0-2.886,3.139,10.355,10.355,0,0,0-1.033,4.758,10.388,10.388,0,0,0,1.033,4.738A7.571,7.571,0,0,0,70.362,21.3a8.067,8.067,0,0,0,4.232,1.111,7.614,7.614,0,0,0,3.92-.994,6.637,6.637,0,0,0,2.632-2.945h6.278a12.168,12.168,0,0,1-4.777,6.493,13.906,13.906,0,0,1-8.015,2.32A14.06,14.06,0,0,1,67.593,25.517Z" transform="translate(29.427 22.832)" fill="#29174c" stroke="rgba(0,0,0,0)" stroke-miterlimit="10" stroke-width="1"/>
      </g>
    </g>
  </g>
</svg>

