<svg xmlns="http://www.w3.org/2000/svg" width="2027.493" height="851.164" viewBox="0 0 2027.493 851.164">
  <g id="Sin_título-1" data-name="Sin título-1" transform="translate(519.607 758.06) rotate(166)">
    <path id="Trazado_6" data-name="Trazado 6" d="M117.54,210.148a1.5,1.5,0,0,1-2.678,1.325c-10.309-17.047-28.932-46.509-47.164-68.8-27.16-33.2-75.4-87.466-66.652-138.8a1.594,1.594,0,0,1,.4-.809C3.208,1.179,11.87-6.326,25.332,12.52c15.136,21.19,38.1,30.146,38.1,30.146l.014.014C66.679,77.694,77.225,118.916,99.908,168.4,106.911,183.713,112.742,197.579,117.54,210.148Z" transform="translate(0 181.62)" fill="none" stroke="#b855ff" stroke-width="2"/>
    <path id="Trazado_7" data-name="Trazado 7" d="M2.832,1.774,12.36.016a1.538,1.538,0,0,1,1.465.628L20.562,10.3a1.536,1.536,0,0,1,.153,1.451L15.094,25.265a1.515,1.515,0,0,1-2.427.53L.46,14.426A1.463,1.463,0,0,1,0,13.533L1.562,3.489A1.491,1.491,0,0,1,2.832,1.774Z" transform="translate(145.315 402.982)" fill="none" stroke="#b855ff" stroke-width="2"/>
    <path id="Trazado_8" data-name="Trazado 8" d="M50.933,194.155A358.31,358.31,0,0,1,21.345,122.94C9.139,81.077,3.977,61.129.476,47.988A20.267,20.267,0,0,1,.03,44.04L9.85.977A1.507,1.507,0,0,1,12.026.21l21.12,36.2c.976,1.967,1.967,2.943,1.939,4.352-.349,19.279,1.06,34.289,8.872,76.292,6.794,36.535,19.014,74.395,19.014,74.395a1.524,1.524,0,0,1-1.256,1.855l-9.221,1.716A1.581,1.581,0,0,1,50.933,194.155Z" transform="translate(92.987 203.068)" fill="none" stroke="#b855ff" stroke-width="2"/>
    <path id="Trazado_9" data-name="Trazado 9" d="M126.26,24.315c1.423,8.97,4.785,35.488,1.786,41.85C124.767,73.125,90.1,79.989,74.618,86.8c-51.168,22.515-56.525.028-61.31-7.924C10.49,74.185,4.52,63.36,0,55.116L123.093,0C123.345,6.752,125.27,18.009,126.26,24.315Z" transform="translate(160.757 566.574)" fill="none" stroke="#b855ff" stroke-width="2"/>
    <path id="Trazado_10" data-name="Trazado 10" d="M258.208,32.908a48.056,48.056,0,0,0-7.1,2.748c74.785,16.852,91.274,112.8,91.274,167.566,0,17.381-2.762,35.056-7.128,52.493a12.411,12.411,0,0,1-18.4,7.617c-38.167-22.669-68.55,13.922-127.878-60.25-16.252-20.325-53.107,26.547,13.21,95.836,31,32.392,55.562,86.447,64.658,114.417a41.308,41.308,0,0,1,.711,23.059c-2.037,7.91-4.241,17.577-6.877,30.132-5.58,26.519-10.532,56.9-22.543,81.941,1.465-.516,2.609-.921,3.39-1.186,14.606-5.106,28.9,4.506,28.9,4.506.963,1.339-4.966,2.3-11.006,4.157a74.675,74.675,0,0,0-9.584,3.739l-139.4,54.056c-2.874,1.018-5.761,2.023-6.891,2.33-2.539.711-15.917,6.584-17,.711s7.142-16.935,12.081-20.1c2.357-1.507,6.947-2.72,10.867-3.753-19.669-10.072-7.1-28.249-54.614-32.573-15.959-1.451-27.565-3.766-35.991-6.459-25.849-8.244-25.068-18.414,1.772-22.334a182.017,182.017,0,0,0,35.74-9.04c21.971-7.993,46.523-17.34,41.6-64.476a11.64,11.64,0,0,1,1-6.347c3.25-6.6,10.783-13.852,28.109-15.429,33.3-3.027,36.339,19.139,54.474,18.163,25.486-1.367-24.468-46.76-49.62-118.6-17.326-49.466-27.649-127.1-8.844-161.274C155.565,115.547,220.6,157.1,244.8,169.212s25.026-40.189,3.027-60.528c-49.982-46.23-152.249-42.3-203.807,7.575-1.646,1.59-4.352-.446-3.6-2.609,4.8-13.713,9.988-26.072,14.452-37.539,8.1-20.841,24.649-33.256,46.718-40.148-.67-.488-2.623-1.4-7.589-3.055-10.965-3.655-54.851-18.288-51.2-21.943s25.6,0,32.908,0S79.371,0,86.68,0s29.253,10.965,36.576,10.965,3.655-7.31,18.288-7.31c9.639,0,14.522,12.708,18.818,22.417h0S164.841,41.1,176.043,41.1s15.833-15.024,15.833-15.024h0c4.3-9.709,9.179-22.417,18.818-22.417,14.633,0,10.965,7.31,18.288,7.31S258.236,0,265.559,0s3.655,10.965,10.965,10.965,29.253-3.655,32.908,0S269.186,29.253,258.208,32.908Z" transform="translate(37.459 0)" fill="none" stroke="#b855ff" stroke-width="2"/>
  </g>
  <g id="Sin_título-1-2" data-name="Sin título-1" transform="translate(1497.103 -84.01) rotate(14)">
    <path id="Trazado_6-2" data-name="Trazado 6" d="M252.319,207.777a1.767,1.767,0,0,0-3.155-1.561C237.02,226.3,215.083,261,193.606,287.261c-31.994,39.109-88.817,103.031-78.514,163.5a1.877,1.877,0,0,0,.477.953c2.07,2.218,12.275,11.059,28.132-11.141,17.829-24.961,44.877-35.51,44.877-35.51l.016-.017c3.812-41.245,16.235-89.8,42.954-148.089C239.8,238.917,246.666,222.583,252.319,207.777Z" transform="translate(0 124.171)" fill="none" stroke="#b855ff" stroke-width="2"/>
    <path id="Trazado_7-2" data-name="Trazado 7" d="M221.366,208.782l11.223,2.07a1.811,1.811,0,0,0,1.725-.739l7.937-11.371a1.809,1.809,0,0,0,.181-1.709L235.81,181.11a1.785,1.785,0,0,0-2.859-.624l-14.378,13.392a1.723,1.723,0,0,0-.542,1.052l1.84,11.831A1.756,1.756,0,0,0,221.366,208.782Z" transform="translate(67.006 107.868)" fill="none" stroke="#b855ff" stroke-width="2"/>
    <path id="Trazado_8-2" data-name="Trazado 8" d="M240.515,203.322a422.076,422.076,0,0,0-34.853,83.887c-14.378,49.314-20.458,72.812-24.583,88.291a23.873,23.873,0,0,0-.526,4.65l11.568,50.727a1.775,1.775,0,0,0,2.563.9l24.879-42.642c1.15-2.317,2.317-3.467,2.284-5.127-.411-22.71,1.249-40.391,10.451-89.869,8-43.037,22.4-87.634,22.4-87.634a1.8,1.8,0,0,0-1.479-2.186L242.356,202.3A1.862,1.862,0,0,0,240.515,203.322Z" transform="translate(42.877 122.202)" fill="none" stroke="#b855ff" stroke-width="2"/>
    <path id="Trazado_9-2" data-name="Trazado 9" d="M377.83,97.393c1.676-10.566,5.636-41.8,2.1-49.3-3.862-8.2-44.7-16.284-62.936-24.3-60.274-26.522-66.584-.033-72.22,9.334C241.457,38.647,234.424,51.4,229.1,61.11l145,64.924C374.4,118.081,376.663,104.82,377.83,97.393Z" transform="translate(74.126 0)" fill="none" stroke="#b855ff" stroke-width="2"/>
    <path id="Trazado_10-2" data-name="Trazado 10" d="M444.872,734.5a56.609,56.609,0,0,1-8.364-3.237C524.6,711.412,544.025,598.39,544.025,533.877c0-20.475-3.254-41.295-8.4-61.835a14.62,14.62,0,0,0-21.674-8.972c-44.959,26.7-80.749-16.4-150.636,70.971-19.144,23.942-62.558-31.271,15.561-112.89,36.513-38.156,65.45-101.832,76.164-134.779a48.659,48.659,0,0,0,.838-27.163c-2.4-9.317-5-20.7-8.1-35.494-6.573-31.238-12.407-67.028-26.555-96.524,1.725.608,3.073,1.085,3.993,1.4,17.2,6.014,34.048-5.308,34.048-5.308,1.134-1.577-5.85-2.711-12.965-4.9a87.967,87.967,0,0,1-11.289-4.4L270.8,50.3c-3.385-1.2-6.787-2.383-8.118-2.744-2.991-.838-18.749-7.756-20.031-.838s8.413,19.949,14.23,23.679c2.777,1.775,8.183,3.2,12.8,4.42-23.17,11.864-8.364,33.276-64.333,38.37-18.8,1.709-32.47,4.437-42.4,7.608-30.449,9.712-29.529,21.691,2.087,26.308a214.413,214.413,0,0,1,42.1,10.648c25.881,9.416,54.8,20.425,49,75.951a13.712,13.712,0,0,0,1.183,7.477c3.829,7.773,12.7,16.317,33.111,18.174,39.224,3.566,42.806-22.545,64.168-21.395,30.022,1.61-28.822,55.081-58.45,139.708C275.749,435.94,263.59,527.386,285.74,567.645c38.222,69.509,114.83,20.557,143.34,6.294,28.527-14.263,29.48,47.342,3.566,71.3C373.769,699.7,253.3,695.062,192.569,636.316c-1.939-1.873-5.127.526-4.24,3.073,5.653,16.153,11.766,30.712,17.024,44.22,9.547,24.55,29.036,39.175,55.032,47.292-.789.575-3.089,1.643-8.939,3.6-12.916,4.305-64.612,21.543-60.307,25.848s30.153,0,38.764,0,4.305,12.916,12.916,12.916,34.459-12.916,43.086-12.916c8.611,0,4.305,8.61,21.543,8.61,11.355,0,17.106-14.97,22.167-26.407h0s5.275-17.7,18.47-17.7c13.212,0,18.651,17.7,18.651,17.7h0c5.061,11.437,10.812,26.407,22.167,26.407,17.238,0,12.916-8.61,21.543-8.61,8.611,0,34.459,12.916,43.086,12.916,8.61,0,4.305-12.916,12.916-12.916s34.459,4.305,38.764,0C509.5,756.043,457.8,738.8,444.872,734.5Z" transform="translate(17.272 20.172)" fill="none" stroke="#b855ff" stroke-width="2"/>
  </g>
  <g id="Componente_13_1" data-name="Componente 13 – 1" transform="translate(1236.446 152.08)">
    <g id="Elipse_1" data-name="Elipse 1" fill="#fff" stroke="#8a80ff" stroke-width="3">
      <ellipse cx="190" cy="190.5" rx="190" ry="190.5" stroke="none"/>
      <ellipse cx="190" cy="190.5" rx="188.5" ry="189" fill="none"/>
    </g>
    <g id="behance" transform="translate(70 115)">
      <g id="Grupo_10" data-name="Grupo 10" transform="translate(0 0)">
        <path id="Trazado_11" data-name="Trazado 11" d="M94.188,85.465s22.083-1.685,22.083-28.3-18.068-39.6-40.957-39.6H0V166.293H75.313s45.976,1.494,45.976-43.9C121.291,122.4,123.3,85.465,94.188,85.465ZM33.184,44H75.315s10.239,0,10.239,15.473S79.53,77.189,72.7,77.189H33.184Zm40.188,95.863H33.184V100.114H75.313s15.259-.2,15.259,20.427C90.572,137.741,79.413,139.691,73.371,139.864Z" transform="translate(0 -17.564)" fill="#29174c"/>
        <rect id="Rectángulo_22" data-name="Rectángulo 22" width="59.717" height="17.825" transform="translate(157.78 8.526)" fill="#29174c"/>
        <path id="Trazado_12" data-name="Trazado 12" d="M107.772,32.682c-55.659,0-55.61,55.605-55.61,55.605s-3.815,55.33,55.613,55.33c0,0,49.527,2.831,49.527-38.492H131.831s.85,15.569-23.206,15.569c0,0-25.469,1.7-25.469-25.189H158.15S166.355,32.682,107.772,32.682Zm22.641,43.506H82.869s3.111-22.309,25.469-22.309S130.413,76.188,130.413,76.188Z" transform="translate(81.143 8.14)" fill="#29174c"/>
      </g>
    </g>
    <text id="Click_Aquí" data-name="Click Aquí" transform="translate(136 297)" fill="#29174c" font-size="21" font-family="Montserrat-Medium, Montserrat" font-weight="500"><tspan x="0" y="0">Click Aquí</tspan></text>
  </g>
  <text id="_Quieres_saber_que_tipo_de_trabajos_hemos_hecho_y_como_lo_hacemos_" data-name="¿Quieres saber que tipo
de trabajos hemos hecho
y como lo hacemos?" transform="translate(400.446 253.08)" fill="#5e108c" font-size="55" font-family="Montserrat-Bold, Montserrat" font-weight="700"><tspan x="0" y="0">¿Quieres saber que tipo</tspan><tspan x="0" y="67">de trabajos hemos hecho</tspan><tspan x="0" y="134">y como lo hacemos?</tspan></text>
  <text id="Visita_nuesto" data-name="Visita nuesto" transform="translate(458.446 476.08)" fill="#5e108c" font-size="40" font-family="Montserrat-Medium, Montserrat" font-weight="500"><tspan x="0" y="0">Visita nuesto</tspan></text>
  <g id="behance-seeklogo-01" transform="translate(735.501 237.43)">
    <path id="path12" d="M17.393,203.654a17.805,17.805,0,0,1,4.67.519A10.092,10.092,0,0,1,25.7,205.6a6,6,0,0,1,2.333,2.725,10.308,10.308,0,0,1,.776,4.151,7.252,7.252,0,0,1-1.3,4.539A9.345,9.345,0,0,1,23.878,220a8.674,8.674,0,0,1,4.928,3.371,10.218,10.218,0,0,1,1.687,5.708,10.337,10.337,0,0,1-1.038,4.67,8.694,8.694,0,0,1-2.852,3.244,13.465,13.465,0,0,1-4.151,1.814,19.345,19.345,0,0,1-4.67.65H.4v-35.8H17.393Zm-1.038,14.529a5.894,5.894,0,0,0,3.5-1.038,3.784,3.784,0,0,0,1.3-3.244,4.978,4.978,0,0,0-.388-2.076,3.65,3.65,0,0,0-1.169-1.3,6.62,6.62,0,0,0-1.687-.65,10.4,10.4,0,0,0-2.076-.131H8.31v8.433Zm.388,15.306a11.709,11.709,0,0,0,2.206-.257,4.58,4.58,0,0,0,3.109-2.2,6.233,6.233,0,0,0,.519-2.333,5,5,0,0,0-1.557-4.021,6.854,6.854,0,0,0-4.151-1.169H8.31v9.99h8.433Z" transform="translate(0 0)" fill="#29174c"/>
    <path id="path14" d="M91.617,247.417a6.343,6.343,0,0,0,4.67,1.557,7.09,7.09,0,0,0,3.763-1.038,5.168,5.168,0,0,0,1.945-2.333h6.358a12.649,12.649,0,0,1-4.67,6.746,13.869,13.869,0,0,1-7.522,2.076,15.232,15.232,0,0,1-5.577-1.038,10.391,10.391,0,0,1-4.151-2.852,10.286,10.286,0,0,1-2.595-4.282,15.24,15.24,0,0,1-.907-5.577,14.985,14.985,0,0,1,.907-5.447,13.949,13.949,0,0,1,2.725-4.409,13.115,13.115,0,0,1,4.151-2.852,14.533,14.533,0,0,1,5.447-1.038,12.117,12.117,0,0,1,5.839,1.3,10.509,10.509,0,0,1,4.021,3.5,15.715,15.715,0,0,1,2.333,4.928,27.283,27.283,0,0,1,.257,5.708H89.8A7.479,7.479,0,0,0,91.617,247.417ZM99.792,233.8a5.617,5.617,0,0,0-4.021-1.426,6.129,6.129,0,0,0-2.852.65,6.816,6.816,0,0,0-1.814,1.426,3.469,3.469,0,0,0-.907,1.814,8.852,8.852,0,0,0-.257,1.687h11.673A6.923,6.923,0,0,0,99.792,233.8Z" transform="translate(-49.839 -14.059)" fill="#29174c"/>
    <path id="path16" d="M162.434,203.654v13.492h.131a7.642,7.642,0,0,1,3.5-3.244,9.8,9.8,0,0,1,4.151-1.038,11.674,11.674,0,0,1,4.67.776,6.987,6.987,0,0,1,2.852,2.206,8.8,8.8,0,0,1,1.426,3.371,22.443,22.443,0,0,1,.388,4.409v15.955H172.42v-14.66a9.078,9.078,0,0,0-1.038-4.8,3.8,3.8,0,0,0-3.5-1.557,4.987,4.987,0,0,0-4.151,1.687c-.907,1.169-1.3,3.113-1.3,5.708v13.622H155.3V203.65Z" transform="translate(-93.542)" fill="#29174c"/>
    <path id="path18" d="M226.675,231.449a9.554,9.554,0,0,1,2.852-2.725,12.606,12.606,0,0,1,3.89-1.426,24.045,24.045,0,0,1,4.282-.388c1.3,0,2.595.131,4.021.257a10.79,10.79,0,0,1,3.632,1.038,7.566,7.566,0,0,1,2.725,2.206,6.461,6.461,0,0,1,1.038,3.763V247.8a27.951,27.951,0,0,0,.257,3.371,5.469,5.469,0,0,0,.907,2.464h-7.261a3.222,3.222,0,0,1-.519-1.169,4.381,4.381,0,0,1-.131-1.3,9.936,9.936,0,0,1-4.021,2.464,14.515,14.515,0,0,1-4.67.65,10.448,10.448,0,0,1-3.5-.519,8.358,8.358,0,0,1-2.852-1.426,7.5,7.5,0,0,1-1.945-2.464,9.389,9.389,0,0,1-.65-3.5,7.535,7.535,0,0,1,.776-3.632,8.49,8.49,0,0,1,1.945-2.333,9.5,9.5,0,0,1,2.852-1.3,24.348,24.348,0,0,1,3.244-.65c1.038-.131,2.076-.257,3.113-.388s1.945-.257,2.725-.388a6.77,6.77,0,0,0,1.945-.907,1.852,1.852,0,0,0,.65-1.687,3.45,3.45,0,0,0-.388-1.814,3.978,3.978,0,0,0-1.038-1.038,4.709,4.709,0,0,0-1.426-.519,7.913,7.913,0,0,0-1.814-.131,4.837,4.837,0,0,0-3.244.907,4.374,4.374,0,0,0-1.426,2.983H225.51A7.7,7.7,0,0,1,226.675,231.449Zm14.137,10.121c-.388.131-.907.257-1.426.388s-1.038.131-1.687.257c-.519.131-1.169.131-1.687.257s-1.038.257-1.557.388a3.011,3.011,0,0,0-1.3.65,3.468,3.468,0,0,0-.907,1.038,2.528,2.528,0,0,0-.388,1.687,2.778,2.778,0,0,0,.388,1.557,3.516,3.516,0,0,0,.907,1.038,4.709,4.709,0,0,0,1.426.519,6.808,6.808,0,0,0,1.687.131,7.122,7.122,0,0,0,3.244-.65,5.266,5.266,0,0,0,1.687-1.687,3.868,3.868,0,0,0,.65-1.945,7.4,7.4,0,0,0,.131-1.557v-2.725A5.122,5.122,0,0,1,240.812,241.57Z" transform="translate(-135.47 -14.046)" fill="#29174c"/>
    <path id="path20" d="M302.787,227.56v3.632h.131a7.642,7.642,0,0,1,3.5-3.244,10.926,10.926,0,0,1,4.409-1.038,11.675,11.675,0,0,1,4.67.776,6.238,6.238,0,0,1,2.852,2.206,11.532,11.532,0,0,1,1.557,3.371,22.445,22.445,0,0,1,.388,4.409v15.955h-7.134v-14.66a9.077,9.077,0,0,0-1.038-4.8,3.955,3.955,0,0,0-3.632-1.687,5.2,5.2,0,0,0-4.282,1.945c-.907,1.169-1.3,3.113-1.3,5.708v13.622H295.78v-26.2Z" transform="translate(-178.376 -14.046)" fill="#29174c"/>
    <path id="path22" d="M377.79,232.23a4.92,4.92,0,0,0-2.852.776,6.03,6.03,0,0,0-1.945,2.076,8.546,8.546,0,0,0-1.038,2.725,11.7,11.7,0,0,0-.257,2.983,21.678,21.678,0,0,0,.257,2.852,7.745,7.745,0,0,0,1.038,2.595,6.548,6.548,0,0,0,1.814,1.945,4.928,4.928,0,0,0,2.852.776,5.844,5.844,0,0,0,4.021-1.426,6.032,6.032,0,0,0,1.687-3.89h6.877c-.519,3.5-1.814,6.1-4.021,7.914a13.038,13.038,0,0,1-8.56,2.725,13.871,13.871,0,0,1-5.32-1.038,11.569,11.569,0,0,1-4.151-2.725,12.83,12.83,0,0,1-2.725-4.151,14.308,14.308,0,0,1-.907-5.32,15.239,15.239,0,0,1,.907-5.577,14.245,14.245,0,0,1,2.595-4.539,13.564,13.564,0,0,1,4.151-2.983,15.231,15.231,0,0,1,5.577-1.038,16.337,16.337,0,0,1,4.409.65,11.31,11.31,0,0,1,3.763,1.814,7.9,7.9,0,0,1,2.725,3.113,11.026,11.026,0,0,1,1.169,4.409h-7Q382.46,232.232,377.79,232.23Z" transform="translate(-219.912 -14.046)" fill="#29174c"/>
    <rect id="rect24" width="14.529" height="3.502" transform="translate(38.538 206.118)" fill="#29174c"/>
    <path id="path26" d="M443.137,247.417a6.553,6.553,0,0,0,4.67,1.557,7.09,7.09,0,0,0,3.763-1.038,5.168,5.168,0,0,0,1.945-2.333h6.227a12.649,12.649,0,0,1-4.67,6.746,13.868,13.868,0,0,1-7.522,2.076,15.232,15.232,0,0,1-5.577-1.038,10.391,10.391,0,0,1-4.151-2.852,10.286,10.286,0,0,1-2.595-4.282,15.24,15.24,0,0,1-.907-5.577,14.985,14.985,0,0,1,.907-5.447,13.949,13.949,0,0,1,2.725-4.409,13.116,13.116,0,0,1,4.151-2.852,15.055,15.055,0,0,1,5.447-1.038,11.264,11.264,0,0,1,5.708,1.3,10.509,10.509,0,0,1,4.021,3.5,15.717,15.717,0,0,1,2.333,4.928,17.2,17.2,0,0,1,.519,5.839H441.323a7.338,7.338,0,0,0,1.814,4.924Zm8.3-13.618a5.617,5.617,0,0,0-4.021-1.426,6.129,6.129,0,0,0-2.852.65,5.217,5.217,0,0,0-1.814,1.426,4.832,4.832,0,0,0-.907,1.814,8.853,8.853,0,0,0-.257,1.687h11.673a8.864,8.864,0,0,0-1.822-4.151Z" transform="translate(-262.039 -14.059)" fill="#29174c"/>
  </g>
</svg>
