<svg xmlns="http://www.w3.org/2000/svg" width="200" height="200" viewBox="0 0 200 200">
  <g id="ui" transform="translate(-0.5)">
    <path id="Trazado_42" data-name="Trazado 42" d="M222.284,368h-6.667v13.333h-60V388h60v10a10,10,0,0,1-10,10H132.284a10.037,10.037,0,0,1-8.667-5l-5.773,3.333a16.735,16.735,0,0,0,14.44,8.333h73.333A16.686,16.686,0,0,0,222.284,398Zm0,0" transform="translate(-68.451 -214.667)" fill="#29174c"/>
    <path id="Trazado_43" data-name="Trazado 43" d="M232.5,432h6.667v6.667H232.5Zm0,0" transform="translate(-135.333 -252)" fill="#29174c"/>
    <path id="Trazado_44" data-name="Trazado 44" d="M131.167,90V83.333H121A43.338,43.338,0,0,0,81.166,43.5V33.333H74.5V43.5a43.323,43.323,0,0,0-6.667,1.04V26.667h53.333V20H67.833V16.667a10,10,0,0,1,10-10h73.333a10,10,0,0,1,6.613,2.5l4.411-5A16.646,16.646,0,0,0,151.166,0H77.833A16.686,16.686,0,0,0,61.166,16.667v30a43.39,43.39,0,0,0-26.5,36.667H24.5V90H34.677A43.14,43.14,0,0,0,74.5,129.847V140h6.667V129.847A43.14,43.14,0,0,0,120.989,90ZM74.5,116.667v6.514a36.527,36.527,0,0,1-13.333-3.848v-6a16.667,16.667,0,0,1,33.333,0v6a36.564,36.564,0,0,1-13.333,3.857v-6.523ZM67.833,80a10,10,0,1,1,10,10A10,10,0,0,1,67.833,80Zm34.443,34c-.36.332-.744.6-1.11.907v-1.574A23.333,23.333,0,0,0,88.57,92.64a16.666,16.666,0,1,0-21.475,0,23.333,23.333,0,0,0-12.6,20.693v1.59c-.369-.3-.754-.588-1.11-.907A36.685,36.685,0,0,1,41.344,90h6.489V83.333h-6.5A36.7,36.7,0,0,1,74.5,50.169v6.5h6.667v-6.5a36.7,36.7,0,0,1,33.164,33.164h-6.5V90h6.489a36.685,36.685,0,0,1-12.046,24.017Zm0,0" transform="translate(-14 0)" fill="#29174c"/>
    <path id="Trazado_45" data-name="Trazado 45" d="M349.167,78.667a3.333,3.333,0,0,0,3.333-3.333v-40A3.333,3.333,0,0,0,349.167,32H275.833a3.333,3.333,0,0,0-3.333,3.333v40a3.333,3.333,0,0,0,3.333,3.333Zm-70-40h66.667V72H279.167Zm0,0" transform="translate(-158.667 -18.667)" fill="#29174c"/>
    <path id="Trazado_46" data-name="Trazado 46" d="M304.5,64h13.333v6.667H304.5Zm0,0" transform="translate(-177.333 -37.333)" fill="#29174c"/>
    <path id="Trazado_47" data-name="Trazado 47" d="M352.5,64h33.333v6.667H352.5Zm0,0" transform="translate(-205.333 -37.333)" fill="#29174c"/>
    <path id="Trazado_48" data-name="Trazado 48" d="M304.5,96h53.333v6.667H304.5Zm0,0" transform="translate(-177.333 -56)" fill="#29174c"/>
    <path id="Trazado_49" data-name="Trazado 49" d="M329.907,160a10.568,10.568,0,0,0-7,2.666L293.829,188.3V160h-6.667v33.333h.964l-18.963,16.733a23.333,23.333,0,0,0-22,23.267v5.881a8.667,8.667,0,0,1-4.823,7.8,3.333,3.333,0,0,0,1.489,6.317h23.333a23.333,23.333,0,0,0,23.267-22l47.42-53.74A10.59,10.59,0,0,0,329.907,160Zm-62.744,86.667H251.918a15.377,15.377,0,0,0,1.911-7.453v-5.881a16.689,16.689,0,0,1,15.334-16.613l14.613,14.613A16.686,16.686,0,0,1,267.163,246.666Zm65.687-73.483-45.837,51.95-11.65-11.647,51.95-45.84a3.924,3.924,0,0,1,5.537,5.537Zm0,0" transform="translate(-139.996 -93.333)" fill="#29174c"/>
    <path id="Trazado_50" data-name="Trazado 50" d="M3.833,370H77.167a3.333,3.333,0,0,0,3.333-3.333V340a3.333,3.333,0,0,0-3.333-3.333H53.833V320H47.167v16.667H3.833A3.333,3.333,0,0,0,.5,340v26.667A3.333,3.333,0,0,0,3.833,370Zm3.333-26.667H73.833v20H7.167Zm0,0" transform="translate(0 -186.667)" fill="#29174c"/>
    <path id="Trazado_51" data-name="Trazado 51" d="M32.5,392H49.167v6.667H32.5Zm0,0" transform="translate(-18.667 -228.667)" fill="#29174c"/>
    <path id="Trazado_52" data-name="Trazado 52" d="M88.5,392h30v6.667h-30Zm0,0" transform="translate(-51.333 -228.667)" fill="#29174c"/>
    <path id="Trazado_53" data-name="Trazado 53" d="M3.833,65.333H37.167A3.334,3.334,0,0,0,40.5,62V35.333A3.334,3.334,0,0,0,37.167,32H3.833A3.334,3.334,0,0,0,.5,35.333V62A3.334,3.334,0,0,0,3.833,65.333ZM7.167,38.667H33.833v20H7.167Zm0,0" transform="translate(0 -18.667)" fill="#29174c"/>
    <path id="Trazado_54" data-name="Trazado 54" d="M32.5,64H45.833v6.667H32.5Zm0,0" transform="translate(-18.667 -37.333)" fill="#29174c"/>
  </g>
</svg>
